<svg width="62" height="62" viewBox="0 0 62 62" fill="none" xmlns="http://www.w3.org/2000/svg">
<rect width="62" height="62" rx="10" fill="#B40001" fill-opacity="0.1"/>
<path opacity="0.15" fill-rule="evenodd" clip-rule="evenodd" d="M25.6665 28.3334V41.6667H38.147C39.4182 41.6667 40.5126 40.7695 40.7619 39.523L42.3619 31.523C42.6919 29.8729 41.4298 28.3334 39.747 28.3334H33.6665L36.9008 23.4819C37.9238 21.9475 37.1178 19.8629 35.3288 19.4156L35.2654 19.3998C34.2855 19.1548 33.2513 19.4845 32.5939 20.2514L25.6665 28.3334Z" fill="#FF0000"/>
<path d="M25.6668 28.3334V41.6667M25.6668 28.3334L20.3335 28.3334V41.6667L25.6668 41.6667M25.6668 28.3334L32.5943 20.2514C33.2516 19.4845 34.2858 19.1548 35.2657 19.3998L35.3291 19.4156C37.1182 19.8629 37.9241 21.9475 36.9012 23.4819L33.6668 28.3334H39.7474C41.4301 28.3334 42.6923 29.8729 42.3622 31.523L40.7622 39.523C40.5129 40.7695 39.4185 41.6667 38.1474 41.6667L25.6668 41.6667" stroke="#FF0000" stroke-width="2.0625" stroke-linecap="round" stroke-linejoin="round"/>
</svg>
